<svg xmlns="http://www.w3.org/2000/svg" width="17.541" height="19.524" viewBox="0 0 17.541 19.524"><defs><style>.a{fill:#105c6e;}.b{fill:#26879c;}.c{fill:#de513c;}.d{fill:#fc6249;}.e{fill:#98d996;}.f{fill:#f4f2e6;}</style></defs><g transform="translate(-26.001)"><path class="a" d="M40.081,62.427l-1.14-1.142a1.4,1.4,0,0,0-1.981,0l-.826.828a1.4,1.4,0,0,0,0,1.977l1.142,1.145a.572.572,0,0,0,.809,0l2-2A.572.572,0,0,0,40.081,62.427Z" transform="translate(-9.353 -58.553)"/><path class="b" d="M241.572,3a.572.572,0,0,0-.572.572V5.4a.572.572,0,0,0,1.144,0V3.572A.572.572,0,0,0,241.572,3Z" transform="translate(-206.801 -2.886)"/><path class="c" d="M207.394,0h-2.822a.572.572,0,1,0,0,1.144h2.822a.572.572,0,1,0,0-1.144Z" transform="translate(-171.212)"/><path class="d" d="M205.983,0h-1.411a.572.572,0,1,0,0,1.144h1.411Z" transform="translate(-171.212)"/><path class="c" d="M40.973,53.682A8.8,8.8,0,1,0,43.542,59.9,8.7,8.7,0,0,0,40.973,53.682Z" transform="translate(0 -49.159)"/><path class="d" d="M34.771,51.108a8.787,8.787,0,0,0,0,17.575Z" transform="translate(0 -49.159)"/><path class="e" d="M89.9,108.538a6.6,6.6,0,1,0,6.585,6.6A6.6,6.6,0,0,0,89.9,108.538Z" transform="translate(-55.129 -104.399)"/><path class="f" d="M89.9,108.538a6.6,6.6,0,0,0,0,13.195Z" transform="translate(-55.129 -104.399)"/><g transform="translate(28.187 4.139)"><path class="a" d="M241.572,109.968a.572.572,0,0,0,.572-.572v-.832c-.189-.016-.379-.025-.572-.025s-.383.009-.572.025v.832A.572.572,0,0,0,241.572,109.968Z" transform="translate(-234.987 -108.539)"/><path class="a" d="M241.572,417.1a.572.572,0,0,0-.572.572v.832c.189.016.379.025.572.025s.383-.009.572-.025v-.832A.572.572,0,0,0,241.572,417.1Z" transform="translate(-234.987 -405.335)"/><path class="a" d="M392.938,266.554h-.819a.572.572,0,1,0,0,1.144h.819c.016-.189.025-.379.025-.572S392.954,266.743,392.938,266.554Z" transform="translate(-379.794 -260.529)"/><path class="a" d="M84.732,267.126a.572.572,0,0,0-.572-.572h-.819c-.016.189-.025.379-.025.572s.009.383.025.572h.819A.572.572,0,0,0,84.732,267.126Z" transform="translate(-83.316 -260.529)"/><path class="a" d="M243.789,200.115h-.807V197.8a.572.572,0,1,0-1.144,0v2.885a.572.572,0,0,0,.572.572h1.379a.572.572,0,1,0,0-1.144Z" transform="translate(-235.793 -193.848)"/></g></g></svg>