<svg xmlns="http://www.w3.org/2000/svg" width="22.333" height="24.766" viewBox="0 0 22.333 24.766"><defs><style>.a{fill:#e8383b;}.b{fill:#ef7f72;}.c{fill:#e95947;}.d{fill:#1c2d6b;}</style></defs><g transform="translate(-53 -44.829)"><g transform="translate(53.447 45.276)"><path class="a" d="M87.77,48.987,86.5,47.829,79.24,54.462l-7.262-6.633L70.71,48.987l8.53,7.791Z" transform="translate(-68.52 -47.829)"/><path class="b" d="M57.268,61.264,56,62.422l8.991,8.212,1.729,1.579,1.729-1.579,8.991-8.212-1.268-1.158L66.72,69.9Z" transform="translate(-56 -59.264)"/><path class="c" d="M73.968,65.082l9.452-8.633-.922-.842L73.968,63.4l-8.53-7.791-.922.842Z" transform="translate(-63.248 -54.449)"/></g><g transform="translate(53 44.829)"><path class="d" d="M64.167,58.672a.446.446,0,0,1-.3-.117l-10.72-9.791a.447.447,0,0,1,0-.66L56.6,44.946a.447.447,0,0,1,.6,0L64.167,51.3l6.961-6.358a.447.447,0,0,1,.6,0L75.188,48.1a.447.447,0,0,1,0,.66l-10.72,9.791A.445.445,0,0,1,64.167,58.672ZM54.109,48.434,64.167,57.62l10.058-9.186-2.8-2.553-6.961,6.358a.447.447,0,0,1-.6,0L56.9,45.88Z" transform="translate(-53 -44.829)"/></g><g transform="translate(53.447 56.199)"><path class="a" d="M87.77,122.355,86.5,121.2,79.24,127.83,71.978,121.2l-1.268,1.158,8.53,7.791Z" transform="translate(-68.52 -121.197)"/><path class="b" d="M57.268,134.632,56,135.79,64.991,144l1.729,1.579L68.449,144l8.991-8.212-1.268-1.158-9.452,8.633Z" transform="translate(-56 -132.632)"/><path class="c" d="M73.968,138.45l9.452-8.633-.922-.842-8.53,7.791-8.53-7.791-.922.842Z" transform="translate(-63.248 -127.817)"/></g><g transform="translate(53 55.753)"><path class="d" d="M64.167,132.04a.446.446,0,0,1-.3-.117l-10.72-9.791a.447.447,0,0,1,0-.66l3.458-3.158a.447.447,0,0,1,.6,0l6.961,6.358,6.961-6.358a.447.447,0,0,1,.6,0l3.458,3.158a.447.447,0,0,1,0,.66l-10.72,9.791A.446.446,0,0,1,64.167,132.04ZM54.109,121.8l10.058,9.186L74.224,121.8l-2.8-2.553-6.961,6.358a.447.447,0,0,1-.6,0L56.9,119.249Z" transform="translate(-53 -118.198)"/></g></g></svg>