<svg xmlns="http://www.w3.org/2000/svg" width="14" height="19.911" viewBox="0 0 14 19.911"><defs><style>.a{fill:#ffda2d;}.b{fill:#80aef8;}.c{fill:#4086f4;}.d{fill:#59c36a;}.e{fill:#00a66c;}.f{fill:#fdbf00;}.g{fill:#4175df;}.h{fill:#f03800;}</style></defs><g transform="translate(-76)"><g transform="translate(76.373 6.358)"><g transform="translate(0)"><path class="a" d="M92.868,167.583l-2.137,3.3-2.039.873a13.736,13.736,0,0,1-3.092-5.075l1.221-2.271,1.964-.914a3.863,3.863,0,0,0-.058.642,3.51,3.51,0,0,0,3.5,3.5A3.864,3.864,0,0,0,92.868,167.583Z" transform="translate(-85.6 -163.5)"/></g></g><path class="b" d="M243.584,18.883a3.817,3.817,0,0,0,.058-.638,3.51,3.51,0,0,0-3.5-3.5h0a3.859,3.859,0,0,0-.642.058l3.1-3.1a6.983,6.983,0,0,1,4.083,4.083l-3.1,3.1S243.584,18.884,243.584,18.883Z" transform="translate(-157.142 -11.245)"/><path class="c" d="M262.574,15.783l-1.062,2.073-2.042,1.031s0,0,0,0a3.814,3.814,0,0,0,.058-.638,3.51,3.51,0,0,0-3.5-3.5h0v-.585l.7-1.554,1.762-.906A6.983,6.983,0,0,1,262.574,15.783Z" transform="translate(-173.029 -11.245)"/><g transform="translate(79.465 4.538)"><path class="d" d="M175.178,116.7l-3.1,3.1a3.536,3.536,0,0,1-2.8,2.8h0l-3.378,3.378-.8.8c.2.222.373.42.56.63,1.283,1.458,2.392,2.8,2.392,4.079a.583.583,0,1,0,1.167,0c0-1.283,1.108-2.621,2.392-4.079,1.8-2.018,4.025-4.538,4.025-8.248A6.685,6.685,0,0,0,175.178,116.7Z" transform="translate(-165.098 -116.7)"/><path class="e" d="M262.575,116.7l-3.1,3.1h0a3.536,3.536,0,0,1-2.8,2.8h0l-.64.64v8.829a.578.578,0,0,0,.582-.583c0-1.283,1.108-2.621,2.392-4.079,1.8-2.018,4.025-4.538,4.025-8.248A6.685,6.685,0,0,0,262.575,116.7Z" transform="translate(-252.495 -116.7)"/></g><g transform="translate(83.001 10.442)"><path class="f" d="M256.031,269.14l.64-.64a3.874,3.874,0,0,1-.64.058Z" transform="translate(-256.031 -268.5)"/></g><path class="c" d="M136.208.455l-3.1,3.1a3.541,3.541,0,0,0-1.832.968l-1.8-.754L128.8,2.053A6.935,6.935,0,0,1,133.747,0,6.685,6.685,0,0,1,136.208.455Z" transform="translate(-50.747)"/><path class="g" d="M256.031,2.918l2.46-2.46A6.684,6.684,0,0,0,256.031,0V2.918Z" transform="translate(-173.03 -0.003)"/><path class="h" d="M80.527,55.273a3.541,3.541,0,0,0-.968,1.832L76.373,60.29A8.807,8.807,0,0,1,76,57.747,6.935,6.935,0,0,1,78.053,52.8Z" transform="translate(0 -50.747)"/></g></svg>